<svg width="1200" height="180" viewBox="0 0 1200 180" fill="none" xmlns="http://www.w3.org/2000/svg">
<path d="M1057.4 21.7539L996.913 160.364H1042.47L1050.57 140.74H1107.84L1115.96 160.364H1161.51L1101 21.7539H1057.4ZM1079.2 71.4479L1093.13 105.161H1065.27L1079.2 71.4479Z" fill="black"/>
<path d="M129.273 117.842C113.882 117.842 101.417 105.398 101.417 89.9998C101.417 74.6293 113.882 62.1579 129.273 62.1579C144.636 62.1579 157.101 74.6293 157.101 89.9998C157.101 105.398 144.636 117.842 129.273 117.842ZM129.273 16.3635C88.6068 16.3635 55.6367 49.3336 55.6367 89.9998C55.6367 130.666 88.6068 163.636 129.273 163.636C169.939 163.636 202.909 130.666 202.909 89.9998C202.909 49.3336 169.939 16.3635 129.273 16.3635Z" fill="black"/>
<path d="M152.406 138.384C152.406 152.331 163.712 163.636 177.658 163.636C191.604 163.636 202.909 152.331 202.909 138.384C202.909 124.439 191.604 113.133 177.658 113.133C163.712 113.133 152.406 124.439 152.406 138.384" fill="url(#paint0_linear_2758_7551)"/>
<rect x="226" y="119" width="748" height="40" rx="20" fill="url(#paint1_linear_2758_7551)"/>
<defs>
<linearGradient id="paint0_linear_2758_7551" x1="154.756" y1="115.483" x2="200.989" y2="161.716" gradientUnits="userSpaceOnUse">
<stop stop-color="#FF6800"/>
<stop offset="0.263037" stop-color="#FF6800"/>
<stop offset="1" stop-color="#FF3200"/>
</linearGradient>
<linearGradient id="paint1_linear_2758_7551" x1="226" y1="159.135" x2="974.605" y2="129.671" gradientUnits="userSpaceOnUse">
<stop stop-color="#FF6800"/>
<stop offset="0.263037" stop-color="#FF6800"/>
<stop offset="1" stop-color="#FF3200"/>
</linearGradient>
</defs>
</svg>
