<svg width="32" height="32" viewBox="0 0 32 32" fill="none" xmlns="http://www.w3.org/2000/svg">
<rect x="6.08301" y="6.08331" width="19.8333" height="19.8333" rx="9.91666" stroke="white" stroke-width="1.5"/>
<path d="M12.7276 10.0623L12.7276 10.0623L12.7259 10.0635C11.9175 10.654 11.5131 11.4775 11.5131 12.5195C11.5131 13.5937 11.9097 14.4403 12.7066 15.0434L12.7065 15.0434L12.7081 15.0445C13.3741 15.533 14.4384 15.9417 15.8864 16.2776L15.8874 16.2778C17.3878 16.6123 18.36 17.0166 18.8374 17.4754L18.8376 17.4756C19.2259 17.847 19.4326 18.4367 19.4326 19.2727C19.4326 20.0033 19.061 20.5834 18.2825 21.0163L18.2814 21.0169C17.6333 21.3861 16.8982 21.5719 16.073 21.5719C14.9597 21.5719 14.1409 21.3546 13.597 20.9396L13.597 20.9395L13.5951 20.9381C12.9874 20.4924 12.6348 19.7751 12.5546 18.7607L12.5547 18.7607L12.5541 18.7557C12.528 18.5373 12.4475 18.3558 12.3017 18.2267L12.3011 18.2262C12.1679 18.1097 12.0048 18.0606 11.8222 18.0745L11.8214 18.0745C11.6538 18.0883 11.5083 18.1514 11.392 18.2659C11.2435 18.412 11.1877 18.6019 11.2146 18.8184C11.3344 20.181 11.8267 21.2042 12.7061 21.8656C13.5106 22.4888 14.6504 22.7916 16.1082 22.7916C17.407 22.7916 18.4959 22.4808 19.3664 21.8506C20.313 21.1816 20.7913 20.2785 20.7913 19.1515C20.7913 18.0167 20.4479 17.1251 19.7467 16.4957C19.0289 15.8494 17.8167 15.3649 16.1327 15.0289L16.1325 15.0289C14.8573 14.7756 13.9985 14.4456 13.5313 14.0516L13.5309 14.0513C13.095 13.6867 12.8718 13.1705 12.8718 12.4848C12.8718 11.8114 13.1495 11.303 13.7115 10.9453C14.2472 10.6049 14.995 10.428 15.9674 10.428C16.8673 10.428 17.5471 10.6098 18.0223 10.9574C18.4933 11.3134 18.8039 11.8799 18.9412 12.6766C18.9687 12.888 19.0593 13.0596 19.2209 13.1752C19.3728 13.2839 19.5425 13.3333 19.7254 13.3194L19.7254 13.3197L19.7334 13.3186C19.928 13.2912 20.084 13.1997 20.1879 13.0416C20.3172 12.8695 20.3533 12.6546 20.3146 12.4131L20.3145 12.4126C20.17 11.536 19.8192 10.8232 19.2571 10.2822L19.2566 10.2817C18.4987 9.56009 17.4193 9.20831 16.0378 9.20831C14.6499 9.20831 13.542 9.48822 12.7276 10.0623Z" fill="white" stroke="white" stroke-width="0.25"/>
<line x1="16.083" y1="8.74994" x2="16.083" y2="23.2499" stroke="white" stroke-width="1.5" stroke-linecap="round"/>
</svg>
