<svg width="32" height="32" viewBox="0 0 32 32" fill="none" xmlns="http://www.w3.org/2000/svg">
<rect x="6.08301" y="6.08337" width="19.8333" height="19.8333" rx="9.91666" stroke="white" stroke-width="1.5"/>
<path d="M20.5837 16C20.5837 18.8544 20.0036 21.4014 19.1007 23.2071C18.1755 25.0577 17.036 25.9167 16.0003 25.9167C14.9647 25.9167 13.8252 25.0577 12.8999 23.2071C11.9971 21.4014 11.417 18.8544 11.417 16C11.417 13.1457 11.9971 10.5987 12.8999 8.79298C13.8252 6.94242 14.9647 6.08337 16.0003 6.08337C17.036 6.08337 18.1755 6.94242 19.1007 8.79298C20.0036 10.5987 20.5837 13.1457 20.5837 16Z" stroke="white" stroke-width="1.5"/>
<line x1="6.08301" y1="15.9167" x2="25.9163" y2="15.9167" stroke="white" stroke-width="1.5" stroke-linecap="round"/>
</svg>
