<svg width="32" height="32" viewBox="0 0 32 32" fill="none" xmlns="http://www.w3.org/2000/svg">
<circle cx="16" cy="17" r="8.25" stroke="white" stroke-width="1.5" stroke-linecap="round"/>
<path d="M9.53033 8.46967C9.23744 8.17678 8.76256 8.17678 8.46967 8.46967C8.17678 8.76256 8.17678 9.23744 8.46967 9.53033L9.53033 8.46967ZM8.46967 9.53033L10.4697 11.5303L11.5303 10.4697L9.53033 8.46967L8.46967 9.53033Z" fill="white"/>
<path d="M23.5303 9.53033C23.8232 9.23744 23.8232 8.76256 23.5303 8.46967C23.2374 8.17678 22.7626 8.17678 22.4697 8.46967L23.5303 9.53033ZM22.4697 8.46967L20.4697 10.4697L21.5303 11.5303L23.5303 9.53033L22.4697 8.46967Z" fill="white"/>
<path d="M16 14V17.8566C16 17.9358 16.0642 18 16.1434 18H20" stroke="white" stroke-width="1.5" stroke-linecap="round"/>
<path d="M13.5 5.5C13.0858 5.5 12.75 5.83579 12.75 6.25C12.75 6.66421 13.0858 7 13.5 7V5.5ZM18.5 7C18.9142 7 19.25 6.66421 19.25 6.25C19.25 5.83579 18.9142 5.5 18.5 5.5V7ZM13.5 7H18.5V5.5H13.5V7Z" fill="white"/>
</svg>
