<svg xmlns="http://www.w3.org/2000/svg" width="16" height="40" viewBox="0 0 43.3 108.8"><path fill="#00A1DF" d="m18.1 4.9 1.3.2.4.9c3.3.2 6.6-.5 6.7-.7.4-.4 1.3-1.5.4-2-3.6.7-8.9-.5-8.2-.2-.7-.4-1.6-.7-2.4-1.6-1.6-2.7-2.6-.9-2.6 0 0 3.4 1 3 4.4 3.4zM42.7 50c-.2-1.5-.4-2.7-.5-3.8-1.6-5.8-3.8-12.2-9.8-14.8-2.6-.9-7.3-.7-7.8-6.6V6.9l-7.7 1.5v1.1l-.2 3.5v3.6c.2 9.1.7 14.8-9.3 18.6-6.2 2.4-6.6 5.1-7.1 12 0 .5-.2 1.1-.2 1.5.3-.4-1.9 19.5 4.9 51 0 0 1.1 5.1 1.1 5.8 0 .4.5.9 1.5 1.6 11.3 2.7 13.7.7 19.7 1.5 6 .7 11.5-3.1 11.5-3.1.5-.2 2.6-4.2 2.7-9.3 2.5-13.8 2-35.9 1.2-46.2z"/></svg>