<svg width="16" height="16" viewBox="0 0 16 16" fill="none" xmlns="http://www.w3.org/2000/svg">
<path d="M9.5 10.5002L11 11.8335L14.1373 8.8335" stroke="#1F1F1F" stroke-linecap="round" stroke-linejoin="round"/>
<path d="M12.8337 12.3785V12.3785C12.8337 13.3662 12.033 14.1668 11.0454 14.1668H5.83366C4.3609 14.1668 3.16699 12.9729 3.16699 11.5002V4.50016C3.16699 3.0274 4.3609 1.8335 5.83366 1.8335H10.167C11.6398 1.8335 12.8337 3.0274 12.8337 4.50016V8.00016" stroke="#1F1F1F" stroke-linecap="round"/>
<path d="M5.33301 4.8335C5.05687 4.8335 4.83301 5.05735 4.83301 5.3335C4.83301 5.60964 5.05687 5.8335 5.33301 5.8335V4.8335ZM9.99967 5.8335C10.2758 5.8335 10.4997 5.60964 10.4997 5.3335C10.4997 5.05735 10.2758 4.8335 9.99967 4.8335V5.8335ZM5.33301 5.8335L9.99967 5.8335V4.8335L5.33301 4.8335V5.8335Z" fill="#1F1F1F"/>
<path d="M5.33301 7.5C5.05687 7.5 4.83301 7.72386 4.83301 8C4.83301 8.27614 5.05687 8.5 5.33301 8.5V7.5ZM9.99967 8.5C10.2758 8.5 10.4997 8.27614 10.4997 8C10.4997 7.72386 10.2758 7.5 9.99967 7.5V8.5ZM5.33301 8.5L9.99967 8.5V7.5L5.33301 7.5V8.5Z" fill="#1F1F1F"/>
<path d="M5.33301 10.1665C5.05687 10.1665 4.83301 10.3904 4.83301 10.6665C4.83301 10.9426 5.05687 11.1665 5.33301 11.1665V10.1665ZM7.33301 11.1665C7.60915 11.1665 7.83301 10.9426 7.83301 10.6665C7.83301 10.3904 7.60915 10.1665 7.33301 10.1665V11.1665ZM5.33301 11.1665H7.33301V10.1665H5.33301V11.1665Z" fill="#1F1F1F"/>
</svg>
